<?xml version="1.0" encoding="utf-8"?>
<!-- Generator: Adobe Illustrator 18.0.0, SVG Export Plug-In . SVG Version: 6.00 Build 0)  -->
<!DOCTYPE svg PUBLIC "-//W3C//DTD SVG 1.1//EN" "http://www.w3.org/Graphics/SVG/1.1/DTD/svg11.dtd">
<svg version="1.1" id="Layer_1" xmlns="http://www.w3.org/2000/svg" xmlns:xlink="http://www.w3.org/1999/xlink" x="0px" y="0px"
	 viewBox="0 0 400 300" enable-background="new 0 0 400 300" xml:space="preserve">
<g>
	<polygon fill="#3CA5C3" points="356.9,164.2 326,164.2 316.5,130.6 310.4,130.6 310.4,126.8 319.5,126.8 328.9,160.4 354.8,160.4 
		362.2,147.9 354.8,137.1 333.3,137.1 333.3,133.4 356.9,133.4 366.8,147.9 	"/>
</g>
<g>
	<rect x="336.9" y="140.4" fill="#3CA5C3" width="3.8" height="16.5"/>
</g>
<g>
	<path fill="#3CA5C3" d="M332.9,170c-1,0-1.9-0.8-1.9-1.9h-3.8c0,3.1,2.5,5.6,5.7,5.6c3.1,0,5.7-2.5,5.7-5.6h-3.8
		C334.8,169.2,333.9,170,332.9,170z"/>
</g>
<g>
	<path fill="#3CA5C3" d="M349.9,170c-1.1,0-1.9-0.8-1.9-1.9h-3.8c0,3.1,2.6,5.6,5.7,5.6c3.1,0,5.7-2.5,5.7-5.6h-3.8
		C351.8,169.2,351,170,349.9,170z"/>
</g>
<g>
	<rect x="346.2" y="140.3" fill="#3CA5C3" width="3.8" height="16.5"/>
</g>
<g>
	<polygon fill="#9ACA3C" points="318.9,154.4 311.7,156.4 313.7,153.1 302.7,150.5 313.5,148.3 311.6,145.4 316.8,146.7 
		315.6,142.5 303.1,139.5 307.3,145.8 285.2,150.2 307.8,155.6 303.6,162.6 319.9,158 318.9,154.4 	"/>
</g>
<path fill="#38688E" d="M36.5,126.8h5.1l-3.3,23.4h-5.1L36.5,126.8z"/>
<path fill="#38688E" d="M64.5,148.5c-1.7,0.8-3.3,1.4-5,1.7c-1.7,0.4-3.4,0.5-5.1,0.5c-1.8,0-3.5-0.3-4.9-0.9
	c-1.5-0.6-2.7-1.4-3.6-2.5c-1-1.1-1.7-2.4-2.1-3.9c-0.4-1.5-0.5-3.2-0.2-5.1c0.3-1.9,0.8-3.6,1.7-5.1c0.8-1.5,1.9-2.8,3.2-3.9
	c1.3-1.1,2.7-1.9,4.3-2.5c1.6-0.6,3.4-0.9,5.2-0.9c1.9,0,3.6,0.2,5.1,0.7c1.5,0.5,2.8,1.2,3.8,2.3l-4.2,4c-0.6-0.7-1.3-1.3-2.1-1.6
	c-0.8-0.4-1.9-0.6-3.2-0.6c-1.1,0-2.1,0.2-3.1,0.6c-0.9,0.4-1.8,0.9-2.5,1.6c-0.7,0.7-1.3,1.5-1.8,2.4c-0.5,0.9-0.8,1.9-0.9,3
	c-0.2,1.1-0.1,2.1,0.1,3c0.2,0.9,0.6,1.7,1.1,2.4c0.5,0.7,1.2,1.2,2.1,1.6c0.8,0.4,1.8,0.6,2.9,0.6c1.1,0,2.1-0.1,3-0.4
	c0.9-0.3,1.5-0.5,2-0.8l0.5-3.8h-4.2l0.7-4.8h9.1L64.5,148.5z"/>
<path fill="#38688E" d="M72,126.8h7l7.7,16.2h0.1l2.3-16.2h5.1l-3.3,23.4h-6.7l-7.9-16.6h-0.1l-2.3,16.6h-5.1L72,126.8z"/>
<path fill="#38688E" d="M98.9,126.8h5.1l-3.3,23.4h-5.1L98.9,126.8z"/>
<path fill="#38688E" d="M112.6,131.3h-6.7l0.6-4.6H125l-0.6,4.6h-6.7l-2.6,18.8h-5.2L112.6,131.3z"/>
<path fill="#38688E" d="M127.6,126.8h5.1l-3.3,23.4h-5.1L127.6,126.8z"/>
<path fill="#38688E" d="M134.5,138.5c0.3-1.9,0.8-3.6,1.7-5.1c0.8-1.5,1.9-2.8,3.2-3.9c1.3-1.1,2.7-1.9,4.3-2.5s3.4-0.9,5.2-0.9
	c1.8,0,3.5,0.3,4.9,0.9c1.5,0.6,2.7,1.4,3.6,2.5c1,1.1,1.7,2.4,2.1,3.9c0.4,1.5,0.5,3.2,0.2,5.1c-0.3,1.9-0.8,3.6-1.6,5.1
	c-0.8,1.5-1.9,2.8-3.2,3.9c-1.3,1.1-2.7,1.9-4.3,2.5c-1.6,0.6-3.3,0.9-5.2,0.9c-1.8,0-3.5-0.3-4.9-0.9c-1.5-0.6-2.7-1.4-3.6-2.5
	c-1-1.1-1.7-2.4-2.1-3.9C134.3,142,134.2,140.3,134.5,138.5z M139.8,138.5c-0.2,1.1-0.1,2.1,0.1,3c0.2,0.9,0.6,1.7,1.1,2.4
	c0.5,0.7,1.2,1.2,2.1,1.6c0.8,0.4,1.8,0.6,2.9,0.6c1.1,0,2.1-0.2,3.1-0.6c0.9-0.4,1.8-0.9,2.5-1.6c0.7-0.7,1.3-1.5,1.8-2.4
	c0.5-0.9,0.8-1.9,0.9-3c0.2-1.1,0.1-2.1-0.1-3c-0.2-0.9-0.6-1.7-1.1-2.4c-0.6-0.7-1.2-1.2-2.1-1.6c-0.8-0.4-1.8-0.6-2.9-0.6
	c-1.1,0-2.1,0.2-3.1,0.6c-0.9,0.4-1.8,0.9-2.5,1.6c-0.7,0.7-1.3,1.5-1.8,2.4C140.3,136.4,140,137.4,139.8,138.5z"/>
<path fill="#38688E" d="M164.9,126.8h7l7.7,16.2h0.1l2.3-16.2h5.1l-3.3,23.4H177l-7.9-16.6h-0.1l-2.3,16.6h-5.2L164.9,126.8z"/>
<path fill="#38688E" d="M191.8,126.8h7.7c1.9,0,3.6,0.2,5.2,0.6c1.6,0.4,3,1.1,4.1,2c1.1,0.9,2,2.2,2.5,3.6c0.5,1.5,0.6,3.3,0.3,5.4
	c-0.3,1.9-0.9,3.6-1.8,5c-0.9,1.4-2,2.7-3.4,3.6c-1.3,1-2.8,1.7-4.5,2.2c-1.7,0.5-3.4,0.8-5.1,0.8h-8.4L191.8,126.8z M194.3,145.4
	h2.7c1.2,0,2.3-0.1,3.4-0.4c1.1-0.2,2-0.6,2.8-1.2c0.8-0.6,1.5-1.3,2.1-2.2c0.5-0.9,0.9-2,1.1-3.3c0.2-1.1,0.1-2.1-0.2-3
	c-0.3-0.8-0.8-1.5-1.4-2.1c-0.7-0.5-1.5-1-2.4-1.2c-0.9-0.3-1.9-0.4-3-0.4h-3L194.3,145.4z"/>
<path fill="#38688E" d="M217,126.8h15.9l-0.7,4.8h-10.7l-0.6,4.4H231l-0.7,4.8h-10.1l-0.7,4.8h11.3l-0.7,4.8h-16.5L217,126.8z"/>
<path fill="#38688E" d="M252,132.9c-0.4-0.6-1-1.1-1.7-1.4c-0.7-0.3-1.5-0.5-2.5-0.5c-1,0-1.9,0.2-2.8,0.6c-0.9,0.4-1.7,0.9-2.4,1.6
	c-0.7,0.7-1.3,1.5-1.7,2.4c-0.5,0.9-0.8,1.9-0.9,3c-0.2,1.1-0.1,2.1,0.1,3c0.2,0.9,0.6,1.7,1.1,2.4c0.5,0.7,1.1,1.2,1.9,1.6
	c0.8,0.4,1.6,0.6,2.5,0.6c1.1,0,2-0.2,2.9-0.7c0.9-0.4,1.6-1.1,2.3-1.8l3.8,3.2c-1.2,1.4-2.6,2.4-4.2,3.1c-1.6,0.7-3.2,1-4.8,1
	c-1.8,0-3.5-0.3-4.9-0.9c-1.5-0.6-2.7-1.4-3.6-2.5c-1-1.1-1.7-2.4-2.1-3.9c-0.4-1.5-0.5-3.2-0.2-5.1c0.3-1.9,0.8-3.6,1.7-5.1
	c0.8-1.5,1.9-2.8,3.2-3.9c1.3-1.1,2.7-1.9,4.3-2.5s3.4-0.9,5.2-0.9c0.7,0,1.3,0.1,2,0.2c0.7,0.1,1.4,0.3,2,0.6
	c0.7,0.3,1.3,0.6,1.9,1.1c0.6,0.4,1.1,1,1.5,1.6L252,132.9z"/>
<path fill="#38688E" d="M260.4,126.8h5.2l-1.4,9.7l10.4-9.7h6.7l-11.9,10.9l9.5,12.5h-7.2l-8-11.1l-1.5,11.1h-5.1L260.4,126.8z"/>
<g>
	<path fill="#38688E" d="M161.2,163.9c-0.5-0.5-0.9-0.8-1.4-1.1c-0.5-0.2-1.1-0.4-1.8-0.4c-0.7,0-1.3,0.1-1.8,0.4
		c-0.5,0.2-0.9,0.6-1.3,1c-0.3,0.4-0.6,0.9-0.8,1.5c-0.2,0.6-0.3,1.1-0.3,1.7c0,0.6,0.1,1.2,0.3,1.7c0.2,0.5,0.5,1,0.9,1.4
		c0.4,0.4,0.8,0.7,1.3,0.9c0.5,0.2,1.1,0.3,1.7,0.3c0.7,0,1.3-0.1,1.8-0.4c0.5-0.2,1-0.6,1.4-1.1l1.8,1.8c-0.6,0.7-1.4,1.2-2.2,1.5
		c-0.9,0.3-1.8,0.5-2.7,0.5c-1,0-1.9-0.2-2.8-0.5c-0.8-0.3-1.6-0.8-2.2-1.4c-0.6-0.6-1.1-1.3-1.4-2.1c-0.3-0.8-0.5-1.8-0.5-2.8
		c0-1,0.2-1.9,0.5-2.8c0.3-0.8,0.8-1.6,1.4-2.2c0.6-0.6,1.3-1.1,2.1-1.4c0.8-0.3,1.8-0.5,2.8-0.5c1,0,1.9,0.2,2.7,0.5
		c0.9,0.3,1.6,0.9,2.3,1.6L161.2,163.9z"/>
	<path fill="#38688E" d="M164.5,167c0-1,0.2-1.8,0.5-2.7c0.4-0.8,0.8-1.5,1.5-2.2c0.6-0.6,1.4-1.1,2.2-1.5c0.8-0.4,1.8-0.5,2.7-0.5
		c1,0,1.9,0.2,2.7,0.5s1.6,0.8,2.2,1.5c0.6,0.6,1.1,1.3,1.5,2.2c0.4,0.8,0.5,1.7,0.5,2.7c0,1-0.2,1.8-0.5,2.7
		c-0.4,0.8-0.8,1.6-1.5,2.2c-0.6,0.6-1.4,1.1-2.2,1.5c-0.8,0.4-1.8,0.5-2.7,0.5c-1,0-1.9-0.2-2.7-0.5c-0.8-0.4-1.6-0.8-2.2-1.5
		c-0.6-0.6-1.1-1.3-1.5-2.2C164.6,168.8,164.5,167.9,164.5,167z M167.1,167c0,0.7,0.1,1.3,0.3,1.8c0.2,0.6,0.5,1,0.9,1.4
		c0.4,0.4,0.8,0.7,1.3,0.9c0.5,0.2,1.1,0.3,1.8,0.3c0.7,0,1.3-0.1,1.8-0.3c0.5-0.2,1-0.5,1.3-0.9c0.4-0.4,0.6-0.9,0.9-1.4
		c0.2-0.6,0.3-1.2,0.3-1.8c0-0.7-0.1-1.3-0.3-1.8c-0.2-0.6-0.5-1-0.9-1.4c-0.4-0.4-0.8-0.7-1.3-0.9c-0.5-0.2-1.1-0.3-1.8-0.3
		c-0.7,0-1.3,0.1-1.8,0.3c-0.5,0.2-1,0.5-1.3,0.9c-0.4,0.4-0.7,0.9-0.9,1.4C167.2,165.7,167.1,166.3,167.1,167z"/>
	<path fill="#38688E" d="M181.4,160.4h2.3v2h0.1c0.1-0.2,0.2-0.4,0.4-0.7c0.2-0.3,0.5-0.5,0.9-0.8c0.4-0.2,0.8-0.5,1.3-0.6
		c0.5-0.2,1-0.3,1.6-0.3c1,0,1.8,0.2,2.4,0.6c0.7,0.4,1.2,1,1.6,1.8c0.4-0.8,1-1.4,1.8-1.8c0.8-0.4,1.5-0.6,2.3-0.6
		c1,0,1.8,0.2,2.5,0.5c0.6,0.3,1.1,0.8,1.5,1.3c0.4,0.5,0.6,1.2,0.8,1.8c0.1,0.7,0.2,1.4,0.2,2.1v7.6h-2.5v-7.3c0-0.5,0-1-0.1-1.4
		c-0.1-0.5-0.2-0.9-0.4-1.2c-0.2-0.3-0.5-0.6-0.9-0.8c-0.4-0.2-0.9-0.3-1.5-0.3c-1.2,0-2,0.4-2.6,1.1c-0.5,0.7-0.8,1.7-0.8,2.8v7.1
		H190v-6.8c0-0.6,0-1.2-0.1-1.7c-0.1-0.5-0.2-1-0.4-1.3c-0.2-0.4-0.5-0.7-0.8-0.9c-0.4-0.2-0.8-0.3-1.4-0.3c-0.4,0-0.9,0.1-1.3,0.3
		c-0.4,0.2-0.8,0.4-1.1,0.8c-0.3,0.3-0.6,0.8-0.7,1.3c-0.2,0.5-0.3,1.2-0.3,1.9v6.8h-2.5V160.4z"/>
	<path fill="#38688E" d="M204.9,160.4h2.3v2h0.1c0.1-0.2,0.2-0.4,0.4-0.7c0.2-0.3,0.5-0.5,0.9-0.8c0.4-0.2,0.8-0.5,1.3-0.6
		c0.5-0.2,1-0.3,1.6-0.3c1,0,1.8,0.2,2.4,0.6c0.7,0.4,1.2,1,1.6,1.8c0.4-0.8,1-1.4,1.8-1.8c0.8-0.4,1.6-0.6,2.3-0.6
		c1,0,1.8,0.2,2.5,0.5c0.6,0.3,1.1,0.8,1.5,1.3c0.4,0.5,0.6,1.2,0.8,1.8c0.1,0.7,0.2,1.4,0.2,2.1v7.6h-2.5v-7.3c0-0.5,0-1-0.1-1.4
		c-0.1-0.5-0.2-0.9-0.4-1.2c-0.2-0.3-0.5-0.6-0.9-0.8c-0.4-0.2-0.9-0.3-1.5-0.3c-1.2,0-2,0.4-2.6,1.1c-0.5,0.7-0.8,1.7-0.8,2.8v7.1
		h-2.5v-6.8c0-0.6,0-1.2-0.1-1.7c-0.1-0.5-0.2-1-0.4-1.3c-0.2-0.4-0.5-0.7-0.8-0.9c-0.4-0.2-0.8-0.3-1.4-0.3c-0.4,0-0.9,0.1-1.3,0.3
		c-0.4,0.2-0.8,0.4-1.1,0.8c-0.3,0.3-0.6,0.8-0.7,1.3c-0.2,0.5-0.3,1.2-0.3,1.9v6.8h-2.5V160.4z"/>
	<path fill="#38688E" d="M230.2,167.9c0,0.6,0.1,1.1,0.4,1.6c0.2,0.5,0.6,0.9,1,1.2c0.4,0.3,0.9,0.6,1.4,0.8
		c0.5,0.2,1.1,0.3,1.7,0.3c0.8,0,1.4-0.2,2-0.5c0.6-0.4,1.1-0.8,1.6-1.4l1.9,1.4c-1.4,1.8-3.3,2.7-5.8,2.7c-1,0-2-0.2-2.8-0.5
		c-0.8-0.3-1.5-0.8-2.1-1.4c-0.6-0.6-1-1.3-1.3-2.2c-0.3-0.8-0.5-1.7-0.5-2.7c0-1,0.2-1.9,0.5-2.7c0.3-0.8,0.8-1.6,1.4-2.2
		c0.6-0.6,1.3-1.1,2.1-1.4c0.8-0.3,1.7-0.5,2.7-0.5c1.2,0,2.1,0.2,2.9,0.6c0.8,0.4,1.5,0.9,2,1.6c0.5,0.7,0.9,1.4,1.1,2.2
		c0.2,0.8,0.3,1.6,0.3,2.5v0.9H230.2z M238,165.9c0-0.6-0.1-1.1-0.3-1.5c-0.2-0.5-0.4-0.9-0.7-1.2c-0.3-0.3-0.7-0.6-1.2-0.8
		c-0.5-0.2-1-0.3-1.6-0.3c-0.6,0-1.2,0.1-1.7,0.3c-0.5,0.2-0.9,0.5-1.3,0.9c-0.3,0.4-0.6,0.8-0.8,1.2c-0.2,0.4-0.3,0.9-0.3,1.3H238z
		"/>
	<path fill="#38688E" d="M243.6,160.4h2.5v2h0.1c0.2-0.3,0.4-0.7,0.7-0.9c0.3-0.3,0.6-0.5,0.9-0.7c0.3-0.2,0.7-0.4,1.1-0.5
		c0.4-0.1,0.8-0.2,1.2-0.2c0.4,0,0.8,0.1,1.1,0.2l-0.1,2.7c-0.2-0.1-0.4-0.1-0.6-0.1c-0.2,0-0.4-0.1-0.6-0.1c-1.2,0-2.1,0.3-2.8,1
		c-0.6,0.7-1,1.7-1,3.2v6.5h-2.5V160.4z"/>
	<path fill="#38688E" d="M262.6,163.9c-0.5-0.5-0.9-0.8-1.4-1.1c-0.5-0.2-1.1-0.4-1.8-0.4c-0.7,0-1.3,0.1-1.8,0.4
		c-0.5,0.2-0.9,0.6-1.3,1c-0.3,0.4-0.6,0.9-0.8,1.5c-0.2,0.6-0.3,1.1-0.3,1.7c0,0.6,0.1,1.2,0.3,1.7c0.2,0.5,0.5,1,0.9,1.4
		c0.4,0.4,0.8,0.7,1.3,0.9c0.5,0.2,1.1,0.3,1.7,0.3c0.7,0,1.3-0.1,1.8-0.4c0.5-0.2,1-0.6,1.4-1.1l1.8,1.8c-0.6,0.7-1.4,1.2-2.2,1.5
		c-0.9,0.3-1.8,0.5-2.7,0.5c-1,0-1.9-0.2-2.8-0.5c-0.8-0.3-1.6-0.8-2.2-1.4c-0.6-0.6-1.1-1.3-1.4-2.1c-0.3-0.8-0.5-1.8-0.5-2.8
		c0-1,0.2-1.9,0.5-2.8c0.3-0.8,0.8-1.6,1.4-2.2c0.6-0.6,1.3-1.1,2.1-1.4c0.8-0.3,1.8-0.5,2.8-0.5c1,0,1.9,0.2,2.7,0.5
		c0.9,0.3,1.6,0.9,2.3,1.6L262.6,163.9z"/>
	<path fill="#38688E" d="M268.4,167.9c0,0.6,0.1,1.1,0.4,1.6c0.2,0.5,0.6,0.9,1,1.2c0.4,0.3,0.9,0.6,1.4,0.8
		c0.5,0.2,1.1,0.3,1.7,0.3c0.8,0,1.4-0.2,2-0.5c0.6-0.4,1.1-0.8,1.6-1.4l1.9,1.4c-1.4,1.8-3.3,2.7-5.8,2.7c-1,0-2-0.2-2.8-0.5
		c-0.8-0.3-1.5-0.8-2.1-1.4c-0.6-0.6-1-1.3-1.3-2.2c-0.3-0.8-0.5-1.7-0.5-2.7c0-1,0.2-1.9,0.5-2.7c0.3-0.8,0.8-1.6,1.4-2.2
		c0.6-0.6,1.3-1.1,2.1-1.4c0.8-0.3,1.7-0.5,2.7-0.5c1.2,0,2.1,0.2,2.9,0.6c0.8,0.4,1.5,0.9,2,1.6c0.5,0.7,0.9,1.4,1.1,2.2
		c0.2,0.8,0.3,1.6,0.3,2.5v0.9H268.4z M276.2,165.9c0-0.6-0.1-1.1-0.3-1.5c-0.2-0.5-0.4-0.9-0.7-1.2c-0.3-0.3-0.7-0.6-1.2-0.8
		c-0.5-0.2-1-0.3-1.6-0.3c-0.6,0-1.2,0.1-1.7,0.3c-0.5,0.2-0.9,0.5-1.3,0.9c-0.3,0.4-0.6,0.8-0.8,1.2c-0.2,0.4-0.3,0.9-0.3,1.3
		H276.2z"/>
</g>
</svg>
